<svg aria-hidden="true" style="position: absolute; width: 0; height: 0; overflow: hidden;" version="1.1" xmlns="http://www.w3.org/2000/svg" xmlns:xlink="http://www.w3.org/1999/xlink">
<defs>
<symbol id="icon-Facebook" viewBox="0 0 32 32">
<path fill="#fff" style="fill: var(--color1, #fff)" d="M17.943 25.333v-9h2.915l0.476-4h-3.391v-1.948c0-1.030 0.028-2.052 1.563-2.052h1.555v-2.86c0-0.043-1.336-0.14-2.687-0.14-2.822 0-4.589 1.657-4.589 4.7v2.3h-3.118v4h3.118v9h4.158z"></path>
</symbol>
<symbol id="icon-Google" viewBox="0 0 32 32">
<path fill="#fff" style="fill: var(--color1, #fff)" d="M29.75 13.205h-13.454c0 1.399 0 4.198-0.009 5.597h7.796c-0.299 1.399-1.358 3.358-2.855 4.345-0.001-0.001-0.003 0.008-0.006 0.007-1.99 1.314-4.616 1.612-6.566 1.22-3.056-0.607-5.475-2.824-6.457-5.639 0.006-0.004 0.010-0.043 0.014-0.046-0.615-1.746-0.615-4.084 0-5.483h-0.001c0.792-2.572 3.284-4.918 6.344-5.56 2.462-0.522 5.239 0.043 7.282 1.955 0.272-0.266 3.76-3.672 4.021-3.949-6.979-6.32-18.153-4.097-22.334 4.065h-0.001c0 0 0.001 0-0.007 0.015v0c-2.068 4.009-1.983 8.732 0.014 12.55-0.006 0.004-0.010 0.007-0.014 0.011 1.81 3.512 5.103 6.206 9.072 7.231 4.216 1.105 9.58 0.35 13.174-2.901 0.001 0.001 0.003 0.003 0.004 0.004 3.045-2.742 4.94-7.414 3.983-13.421z"></path>
<path fill="none" stroke="#000" style="stroke: var(--color2, #000)" stroke-linejoin="miter" stroke-linecap="butt" stroke-miterlimit="4" stroke-width="2" d="M29.75 13.205h-13.454c0 1.399 0 4.198-0.009 5.597h7.796c-0.299 1.399-1.358 3.358-2.855 4.345-0.001-0.001-0.003 0.008-0.006 0.007-1.99 1.314-4.616 1.612-6.566 1.22-3.056-0.607-5.475-2.824-6.457-5.639 0.006-0.004 0.010-0.043 0.014-0.046-0.615-1.746-0.615-4.084 0-5.483h-0.001c0.792-2.572 3.284-4.918 6.344-5.56 2.462-0.522 5.239 0.043 7.282 1.955 0.272-0.266 3.76-3.672 4.021-3.949-6.979-6.32-18.153-4.097-22.334 4.065h-0.001c0 0 0.001 0-0.007 0.015v0c-2.068 4.009-1.983 8.732 0.014 12.55-0.006 0.004-0.010 0.007-0.014 0.011 1.81 3.512 5.103 6.206 9.072 7.231 4.216 1.105 9.58 0.35 13.174-2.901 0.001 0.001 0.003 0.003 0.004 0.004 3.045-2.742 4.94-7.414 3.983-13.421"></path>
</symbol>
<symbol id="icon-Linkedin" viewBox="0 0 32 32">
<path fill="#fff" style="fill: var(--color1, #fff)" d="M26.667 25.333h-4.103v-7.471c0-2.049-0.869-3.193-2.427-3.193-1.695 0-2.702 1.191-2.702 3.193v7.471h-4.103v-13.877h4.103v1.561c0 0 1.287-2.351 4.188-2.351s5.043 1.842 5.043 5.655c0 3.812 0 9.011 0 9.011zM7.334 8c-1.105 0-2-0.896-2-2s0.895-2 2-2c1.104 0 2 0.896 2 2s-0.895 2-2 2zM5.333 25.333h4v-13.333h-4v13.333z"></path>
</symbol>
</defs>
</svg>
